<?xml version="1.0" standalone="no"?><svg xmlns:xlink="http://www.w3.org/1999/xlink" xmlns="http://www.w3.org/2000/svg" viewBox="0 0 1000 636.3667819548646" preserveAspectRatio="xMaxYMax slice"><g transform="scale(1.504413196110791)"><rect x="0" y="0" width="664.7142857142858" height="423" fill="#ffffff"/><path d="M 302.14 60.43 A 60.43 60.43 0 0 1  362.57 120.86 L 302.14 60.43 A 60.43 60.43 0 0 0 362.57 120.86" fill="#eaf6f6"/><rect x="423" y="60.42857142857143" width="60.42857142857143" height="60.42857142857143" fill="#ffffff"/><path d="M 453.21 60.43 A 30.21 30.21 0 0 1  483.41999999999996 90.64 L 453.21 60.43 A 30.21 30.21 0 0 0 483.41999999999996 90.64" fill="#fedfc8"/><rect x="241.71428571428572" y="120.85714285714286" width="60.42857142857143" height="60.42857142857143" fill="#ffffff"/><path d="M 241.71 120.86 A 30.21 30.21 0 0 1  271.92 151.07 L 241.71 120.86 A 30.21 30.21 0 0 0 271.92 151.07" fill="#d6f3f8"/><path d="M 423 120.86 A 60.43 60.43 0 0 1  483.43 181.29 L 423 120.86 A 60.43 60.43 0 0 0 483.43 181.29" fill="#f6fcfd"/><rect x="543.8571428571429" y="120.85714285714286" width="60.42857142857143" height="60.42857142857143" fill="#ffffff"/><rect x="604.2857142857143" y="120.85714285714286" width="60.42857142857143" height="60.42857142857143" fill="#ffffff"/><path d="M 634.5 151.07 A 30.21 30.21 0 0 1  664.71 120.86 L 634.5 151.07 A 30.21 30.21 0 0 0 664.71 120.86" fill="#f6fcfe"/><path d="M 634.5 181.28 A 30.21 30.21 0 0 1  664.71 151.07 L 634.5 181.28 A 30.21 30.21 0 0 0 664.71 151.07" fill="#ecf9fc"/><path d="M 60.43 241.72 A 60.43 60.43 0 0 1  120.86 181.29 L 60.43 241.72 A 60.43 60.43 0 0 0 120.86 181.29" fill="#f4fafa"/><path d="M 120.86 181.29 A 60.43 60.43 0 0 1  181.29 241.72 L 120.86 181.29 A 60.43 60.43 0 0 0 181.29 241.72" fill="#fde8d7"/><path d="M 181.29 181.29 A 60.43 60.43 0 0 1  241.72 241.72 L 181.29 181.29 A 60.43 60.43 0 0 0 241.72 241.72" fill="#80d9eb"/><path d="M 302.14 241.72 A 60.43 60.43 0 0 1  362.57 181.29 L 302.14 241.72 A 60.43 60.43 0 0 0 362.57 181.29" fill="#edf0e2"/><rect x="362.57142857142856" y="181.28571428571428" width="60.42857142857143" height="60.42857142857143" fill="#ffffff"/><path d="M 392.79 211.5 A 30.21 30.21 0 0 1  423 241.71 L 392.79 211.5 A 30.21 30.21 0 0 0 423 241.71" fill="#feefe3"/><rect x="423" y="181.28571428571428" width="60.42857142857143" height="60.42857142857143" fill="#ffffff"/><path d="M 453.21 181.29 A 30.21 30.21 0 0 1  483.41999999999996 211.5 L 453.21 181.29 A 30.21 30.21 0 0 0 483.41999999999996 211.5" fill="#fffcfb"/><path d="M 453.21 211.5 A 30.21 30.21 0 0 1  483.41999999999996 241.71 L 453.21 211.5 A 30.21 30.21 0 0 0 483.41999999999996 241.71" fill="#fee5d3"/><path d="M 0 302.14 A 60.43 60.43 0 0 1  60.43 241.71 L 0 302.14 A 60.43 60.43 0 0 0 60.43 241.71" fill="#f7fcfc"/><path d="M 120.86 302.14 A 60.43 60.43 0 0 1  181.29 241.71 L 120.86 302.14 A 60.43 60.43 0 0 0 181.29 241.71" fill="#f49041"/><path d="M 302.14 302.14 A 60.43 60.43 0 0 1  362.57 241.71 L 302.14 302.14 A 60.43 60.43 0 0 0 362.57 241.71" fill="#f8bc8c"/><rect x="362.57142857142856" y="241.71428571428572" width="60.42857142857143" height="60.42857142857143" fill="#ffffff"/><path d="M 392.79 241.71 A 30.21 30.21 0 0 1  423 271.92 L 392.79 241.71 A 30.21 30.21 0 0 0 423 271.92" fill="#fff7f1"/><path d="M 362.57 271.93 A 30.21 30.21 0 0 1  392.78 302.14 L 362.57 271.93 A 30.21 30.21 0 0 0 392.78 302.14" fill="#b7e1df"/><path d="M 392.79 271.93 A 30.21 30.21 0 0 1  423 302.14 L 392.79 271.93 A 30.21 30.21 0 0 0 423 302.14" fill="#fefefe"/><rect x="423" y="241.71428571428572" width="60.42857142857143" height="60.42857142857143" fill="#ffffff"/><path d="M 423 241.71 A 30.21 30.21 0 0 1  453.21 271.92 L 423 241.71 A 30.21 30.21 0 0 0 453.21 271.92" fill="#f5fcfd"/><path d="M 453.21 271.92 A 30.21 30.21 0 0 1  483.41999999999996 241.71 L 453.21 271.92 A 30.21 30.21 0 0 0 483.41999999999996 241.71" fill="#cbeae8"/><path d="M 423 271.93 A 30.21 30.21 0 0 1  453.21 302.14 L 423 271.93 A 30.21 30.21 0 0 0 453.21 302.14" fill="#e8f8fb"/><rect x="543.8571428571429" y="241.71428571428572" width="60.42857142857143" height="60.42857142857143" fill="#ffffff"/><path d="M 543.86 241.71 A 30.21 30.21 0 0 1  574.07 271.92 L 543.86 241.71 A 30.21 30.21 0 0 0 574.07 271.92" fill="#f6a15e"/><path d="M 574.07 241.71 A 30.21 30.21 0 0 1  604.2800000000001 271.92 L 574.07 241.71 A 30.21 30.21 0 0 0 604.2800000000001 271.92" fill="#e1f3f2"/><path d="M 574.07 302.14 A 30.21 30.21 0 0 1  604.2800000000001 271.93 L 574.07 302.14 A 30.21 30.21 0 0 0 604.2800000000001 271.93" fill="#fff0e6"/><rect x="604.2857142857143" y="241.71428571428572" width="60.42857142857143" height="60.42857142857143" fill="#ffffff"/><path d="M 634.5 241.71 A 30.21 30.21 0 0 1  664.71 271.92 L 634.5 241.71 A 30.21 30.21 0 0 0 664.71 271.92" fill="#fefefe"/><path d="M 634.5 302.14 A 30.21 30.21 0 0 1  664.71 271.93 L 634.5 302.14 A 30.21 30.21 0 0 0 664.71 271.93" fill="#f7b27c"/><rect x="0" y="302.14285714285717" width="60.42857142857143" height="60.42857142857143" fill="#ffffff"/><path d="M 0 302.14 A 30.21 30.21 0 0 1  30.21 332.34999999999997 L 0 302.14 A 30.21 30.21 0 0 0 30.21 332.34999999999997" fill="#f49143"/><path d="M 30.21 332.34999999999997 A 30.21 30.21 0 0 1  60.42 302.14 L 30.21 332.34999999999997 A 30.21 30.21 0 0 0 60.42 302.14" fill="#fefefe"/><path d="M 0 362.57 A 30.21 30.21 0 0 1  30.21 332.36 L 0 362.57 A 30.21 30.21 0 0 0 30.21 332.36" fill="#d6eeed"/><path d="M 30.21 362.57 A 30.21 30.21 0 0 1  60.42 332.36 L 30.21 362.57 A 30.21 30.21 0 0 0 60.42 332.36" fill="#dff2f1"/><path d="M 60.43 362.57 A 60.43 60.43 0 0 1  120.86 302.14 L 60.43 362.57 A 60.43 60.43 0 0 0 120.86 302.14" fill="#fbfbf8"/><path d="M 120.86 302.14 A 60.43 60.43 0 0 1  181.29 362.57 L 120.86 302.14 A 60.43 60.43 0 0 0 181.29 362.57" fill="#e3e7d1"/><rect x="181.28571428571428" y="302.14285714285717" width="60.42857142857143" height="60.42857142857143" fill="#ffffff"/><path d="M 181.29 302.14 A 30.21 30.21 0 0 1  211.5 332.34999999999997 L 181.29 302.14 A 30.21 30.21 0 0 0 211.5 332.34999999999997" fill="#f7fcfb"/><path d="M 211.5 332.34999999999997 A 30.21 30.21 0 0 1  241.71 302.14 L 211.5 332.34999999999997 A 30.21 30.21 0 0 0 241.71 302.14" fill="#c0e5e3"/><rect x="241.71428571428572" y="302.14285714285717" width="60.42857142857143" height="60.42857142857143" fill="#ffffff"/><path d="M 271.93 302.14 A 30.21 30.21 0 0 1  302.14 332.34999999999997 L 271.93 302.14 A 30.21 30.21 0 0 0 302.14 332.34999999999997" fill="#f7b37d"/><path d="M 241.71 362.57 A 30.21 30.21 0 0 1  271.92 332.36 L 241.71 362.57 A 30.21 30.21 0 0 0 271.92 332.36" fill="#eef0e3"/><path d="M 271.93 332.36 A 30.21 30.21 0 0 1  302.14 362.57 L 271.93 332.36 A 30.21 30.21 0 0 0 302.14 362.57" fill="#fff8f4"/><path d="M 302.14 302.14 A 60.43 60.43 0 0 1  362.57 362.57 L 302.14 302.14 A 60.43 60.43 0 0 0 362.57 362.57" fill="#f59a52"/><path d="M 362.57 302.14 A 60.43 60.43 0 0 1  423 362.57 L 362.57 302.14 A 60.43 60.43 0 0 0 423 362.57" fill="#fdffff"/><rect x="423" y="302.14285714285717" width="60.42857142857143" height="60.42857142857143" fill="#ffffff"/><path d="M 453.21 332.34999999999997 A 30.21 30.21 0 0 1  483.41999999999996 302.14 L 453.21 332.34999999999997 A 30.21 30.21 0 0 0 483.41999999999996 302.14" fill="#fbd8bc"/><path d="M 453.21 362.57 A 30.21 30.21 0 0 1  483.41999999999996 332.36 L 453.21 362.57 A 30.21 30.21 0 0 0 483.41999999999996 332.36" fill="#d1eceb"/><path d="M 483.43 362.57 A 60.43 60.43 0 0 1  543.86 302.14 L 483.43 362.57 A 60.43 60.43 0 0 0 543.86 302.14" fill="#fdc094"/><rect x="543.8571428571429" y="302.14285714285717" width="60.42857142857143" height="60.42857142857143" fill="#ffffff"/><path d="M 543.86 332.34999999999997 A 30.21 30.21 0 0 1  574.07 302.14 L 543.86 332.34999999999997 A 30.21 30.21 0 0 0 574.07 302.14" fill="#fdc7a0"/><path d="M 574.07 302.14 A 30.21 30.21 0 0 1  604.2800000000001 332.34999999999997 L 574.07 302.14 A 30.21 30.21 0 0 0 604.2800000000001 332.34999999999997" fill="#facaa4"/><path d="M 574.07 362.57 A 30.21 30.21 0 0 1  604.2800000000001 332.36 L 574.07 362.57 A 30.21 30.21 0 0 0 604.2800000000001 332.36" fill="#f3f4eb"/><path d="M 604.29 362.57 A 60.43 60.43 0 0 1  664.7199999999999 302.14 L 604.29 362.57 A 60.43 60.43 0 0 0 664.7199999999999 302.14" fill="#8cdced"/><path d="M 0 362.57 A 60.43 60.43 0 0 1  60.43 423 L 0 362.57 A 60.43 60.43 0 0 0 60.43 423" fill="#d7f3f9"/><rect x="60.42857142857143" y="362.57142857142856" width="60.42857142857143" height="60.42857142857143" fill="#ffffff"/><path d="M 60.43 362.57 A 30.21 30.21 0 0 1  90.64 392.78 L 60.43 362.57 A 30.21 30.21 0 0 0 90.64 392.78" fill="#fef1e7"/><path d="M 90.64 362.57 A 30.21 30.21 0 0 1  120.85 392.78 L 90.64 362.57 A 30.21 30.21 0 0 0 120.85 392.78" fill="#fb8027"/><path d="M 60.43 392.79 A 30.21 30.21 0 0 1  90.64 423 L 60.43 392.79 A 30.21 30.21 0 0 0 90.64 423" fill="#bbe3e1"/><path d="M 90.64 423 A 30.21 30.21 0 0 1  120.85 392.79 L 90.64 423 A 30.21 30.21 0 0 0 120.85 392.79" fill="#fac8a1"/><rect x="120.85714285714286" y="362.57142857142856" width="60.42857142857143" height="60.42857142857143" fill="#ffffff"/><path d="M 120.86 392.78 A 30.21 30.21 0 0 1  151.07 362.57 L 120.86 392.78 A 30.21 30.21 0 0 0 151.07 362.57" fill="#cdebe9"/><path d="M 151.07 362.57 A 30.21 30.21 0 0 1  181.28 392.78 L 151.07 362.57 A 30.21 30.21 0 0 0 181.28 392.78" fill="#f8bd8f"/><path d="M 120.86 392.79 A 30.21 30.21 0 0 1  151.07 423 L 120.86 392.79 A 30.21 30.21 0 0 0 151.07 423" fill="#facca7"/><path d="M 151.07 423 A 30.21 30.21 0 0 1  181.28 392.79 L 151.07 423 A 30.21 30.21 0 0 0 181.28 392.79" fill="#fdc195"/><rect x="181.28571428571428" y="362.57142857142856" width="60.42857142857143" height="60.42857142857143" fill="#ffffff"/><path d="M 181.29 362.57 A 30.21 30.21 0 0 1  211.5 392.78 L 181.29 362.57 A 30.21 30.21 0 0 0 211.5 392.78" fill="#e5f7fb"/><path d="M 211.5 392.78 A 30.21 30.21 0 0 1  241.71 362.57 L 211.5 392.78 A 30.21 30.21 0 0 0 241.71 362.57" fill="#facca8"/><path d="M 181.29 392.79 A 30.21 30.21 0 0 1  211.5 423 L 181.29 392.79 A 30.21 30.21 0 0 0 211.5 423" fill="#a8dbd9"/><path d="M 211.5 423 A 30.21 30.21 0 0 1  241.71 392.79 L 211.5 423 A 30.21 30.21 0 0 0 241.71 392.79" fill="#c4e7e5"/><path d="M 241.71 362.57 A 60.43 60.43 0 0 1  302.14 423 L 241.71 362.57 A 60.43 60.43 0 0 0 302.14 423" fill="#fcfdfb"/><path d="M 302.14 423 A 60.43 60.43 0 0 1  362.57 362.57 L 302.14 423 A 60.43 60.43 0 0 0 362.57 362.57" fill="#fee5d2"/><rect x="362.57142857142856" y="362.57142857142856" width="60.42857142857143" height="60.42857142857143" fill="#ffffff"/><path d="M 362.57 362.57 A 30.21 30.21 0 0 1  392.78 392.78 L 362.57 362.57 A 30.21 30.21 0 0 0 392.78 392.78" fill="#feecde"/><path d="M 392.79 362.57 A 30.21 30.21 0 0 1  423 392.78 L 392.79 362.57 A 30.21 30.21 0 0 0 423 392.78" fill="#f6a05d"/><path d="M 362.57 392.79 A 30.21 30.21 0 0 1  392.78 423 L 362.57 392.79 A 30.21 30.21 0 0 0 392.78 423" fill="#f8b37e"/><path d="M 392.79 423 A 30.21 30.21 0 0 1  423 392.79 L 392.79 423 A 30.21 30.21 0 0 0 423 392.79" fill="#edf0e2"/><path d="M 423 362.57 A 60.43 60.43 0 0 1  483.43 423 L 423 362.57 A 60.43 60.43 0 0 0 483.43 423" fill="#f2faf9"/><path d="M 483.43 423 A 60.43 60.43 0 0 1  543.86 362.57 L 483.43 423 A 60.43 60.43 0 0 0 543.86 362.57" fill="#f0f9f8"/><rect x="543.8571428571429" y="362.57142857142856" width="60.42857142857143" height="60.42857142857143" fill="#ffffff"/><path d="M 543.86 362.57 A 30.21 30.21 0 0 1  574.07 392.78 L 543.86 362.57 A 30.21 30.21 0 0 0 574.07 392.78" fill="#eef0e4"/><path d="M 574.07 392.78 A 30.21 30.21 0 0 1  604.2800000000001 362.57 L 574.07 392.78 A 30.21 30.21 0 0 0 604.2800000000001 362.57" fill="#f5f6ef"/><path d="M 543.86 392.79 A 30.21 30.21 0 0 1  574.07 423 L 543.86 392.79 A 30.21 30.21 0 0 0 574.07 423" fill="#f49244"/><path d="M 574.07 423 A 30.21 30.21 0 0 1  604.2800000000001 392.79 L 574.07 423 A 30.21 30.21 0 0 0 604.2800000000001 392.79" fill="#ebf9fc"/><path d="M 604.29 362.57 A 60.43 60.43 0 0 1  664.7199999999999 423 L 604.29 362.57 A 60.43 60.43 0 0 0 664.7199999999999 423" fill="#eff8f8"/></g></svg>